# xmcd
#
# Track frame offsets: 
#        150
#        27550
#        47383
#        66993
#        91558
#        112770
#        131023
#        152725
#        172803
#        191988
#        217115
#        239830
#
# Disc length: 3570 seconds
#
# Revision: 5
# Processed by: cddbd v1.5.2PL0 Copyright (c) Steve Scherf et al.
# Submitted via: ExactAudioCopy v1.0b3
#
DISCID=a40df00c
DTITLE=Acid Black Cherry - BLACK LIST
DYEAR=2008
DGENRE=Rock
TTITLE0=sins
TTITLE1=少女の祈り
TTITLE2=SPELL MAGIC
TTITLE3=scar
TTITLE4=愛してない
TTITLE5=Bit Stupid
TTITLE6=楽園
TTITLE7=Black Cherry
TTITLE8=Murder Licence
TTITLE9=冬の幻
TTITLE10=DRAGON CARNIVAL
TTITLE11=Prologue End
EXTD=YEAR: 2008
EXTT0=
EXTT1=
EXTT2=
EXTT3=
EXTT4=
EXTT5=
EXTT6=
EXTT7=
EXTT8=
EXTT9=
EXTT10=
EXTT11=
PLAYORDER=
